# xmcd
#
# Track frame offsets:
#	150
#	8675
#	17965
#	35235
#	50727
#	65547
#	77672
#	86500
#	104182
#	114035
#	129607
#	143862
#
# Disc length: 2100 seconds
#
# Revision: 1
# Processed by: cddbd v1.5.2PL0 Copyright (c) Steve Scherf et al.
# Submitted via: audiograbber 1.83.01
#
DISCID=a408320c
DTITLE=Forbes Family - I'll Look To Him
DYEAR=1900
DGENRE=Gospel
TTITLE0=I'll Look To Him
TTITLE1=I Have A Father Who Can
TTITLE2=I'll Face Nobody's Record Except Mine
TTITLE3=Driving Nails
TTITLE4=Pass Me Not
TTITLE5=Who Will Be Jesus
TTITLE6=A Child"s Morning Prayer
TTITLE7=My God Cares
TTITLE8=After Awhile
TTITLE9=How Far Is Heaven
TTITLE10=I Can Go To Them
TTITLE11=The Prettiest Flowers Will Be Blooming
EXTD=
EXTT0=
EXTT1=
EXTT2=
EXTT3=
EXTT4=
EXTT5=
EXTT6=
EXTT7=
EXTT8=
EXTT9=
EXTT10=
EXTT11=
PLAYORDER=
